<svg xmlns="http://www.w3.org/2000/svg" viewBox="0 0 920 470">
  <defs>
    <filter id="shadow" x="-10%" y="-10%" width="120%" height="130%">
      <feDropShadow dx="0" dy="8" stdDeviation="14" flood-color="#000000" flood-opacity="0.35"/>
    </filter>
    <linearGradient id="titlebar" x1="0" y1="0" x2="0" y2="1">
      <stop offset="0" stop-color="#1c222b"/>
      <stop offset="1" stop-color="#161b22"/>
    </linearGradient>
  </defs>

  <style>
    text { font-family: ui-monospace, "SF Mono", Menlo, Consolas, "Liberation Mono", monospace; font-size: 15px; }
    .sm  { font-size: 13px; }
    @media (prefers-reduced-motion: no-preference) {
      .fade { animation: fadeIn 0.3s ease-out both; }
      .ch   { animation: fadeIn 1ms steps(1) both; }
      .cursor { animation: blink 1.1s steps(1) infinite; animation-delay: 2.8s; }
      @keyframes fadeIn { from { opacity: 0; } to { opacity: 1; } }
      @keyframes blink  { 0%, 49% { opacity: 1; } 50%, 100% { opacity: 0; } }
    }
  </style>

  <!-- ── window ─────────────────────────────────────── -->
  <rect x="14" y="10" width="892" height="448" rx="12" fill="#0d1117" filter="url(#shadow)"/>
  <rect x="14" y="10" width="892" height="44" rx="12" fill="url(#titlebar)"/>
  <rect x="14" y="32" width="892" height="22" fill="#161b22"/>
  <line x1="14" y1="54" x2="906" y2="54" stroke="#30363d" stroke-width="1"/>
  <circle cx="38" cy="32" r="6.5" fill="#ff5f57"/>
  <circle cx="60" cy="32" r="6.5" fill="#febc2e"/>
  <circle cx="82" cy="32" r="6.5" fill="#28c840"/>
  <text x="460" y="37" text-anchor="middle" class="sm" fill="#8b949e">milad — -zsh — 120×34</text>

  <!-- ── $ neofetch ─────────────────────────────────── -->
  <text x="38" y="88"><tspan fill="#3fb950">milad@Milads-MacBook-Pro</tspan><tspan fill="#58a6ff"> ~</tspan><tspan fill="#8b949e"> %</tspan></text>
  <text y="88" fill="#e6edf3">
    <tspan x="300" class="ch" style="animation-delay:.2s">n</tspan><tspan x="309" class="ch" style="animation-delay:.26s">e</tspan><tspan x="318" class="ch" style="animation-delay:.32s">o</tspan><tspan x="327" class="ch" style="animation-delay:.38s">f</tspan><tspan x="336" class="ch" style="animation-delay:.44s">e</tspan><tspan x="345" class="ch" style="animation-delay:.5s">t</tspan><tspan x="354" class="ch" style="animation-delay:.56s">c</tspan><tspan x="363" class="ch" style="animation-delay:.62s">h</tspan>
  </text>

  <!-- ── pixel M monogram (drawn with rects — font-independent, shaded like a distro logo) ── -->
  <g class="fade" style="animation-delay:.85s">
    <!-- row 0 -->
    <rect x="44" y="160" width="28" height="24" rx="2" fill="#56d364"/><rect x="194" y="160" width="28" height="24" rx="2" fill="#56d364"/>
    <!-- row 1 : diagonals start -->
    <rect x="44" y="186" width="28" height="24" rx="2" fill="#56d364"/><rect x="74" y="186" width="13" height="24" rx="2" fill="#56d364"/><rect x="179" y="186" width="13" height="24" rx="2" fill="#56d364"/><rect x="194" y="186" width="28" height="24" rx="2" fill="#56d364"/>
    <!-- row 2 -->
    <rect x="44" y="212" width="28" height="24" rx="2" fill="#3fb950"/><rect x="89" y="212" width="13" height="24" rx="2" fill="#3fb950"/><rect x="164" y="212" width="13" height="24" rx="2" fill="#3fb950"/><rect x="194" y="212" width="28" height="24" rx="2" fill="#3fb950"/>
    <!-- row 3 -->
    <rect x="44" y="238" width="28" height="24" rx="2" fill="#3fb950"/><rect x="104" y="238" width="13" height="24" rx="2" fill="#3fb950"/><rect x="149" y="238" width="13" height="24" rx="2" fill="#3fb950"/><rect x="194" y="238" width="28" height="24" rx="2" fill="#3fb950"/>
    <!-- row 4 : diagonals meet -->
    <rect x="44" y="264" width="28" height="24" rx="2" fill="#2ea043"/><rect x="119" y="264" width="28" height="24" rx="2" fill="#2ea043"/><rect x="194" y="264" width="28" height="24" rx="2" fill="#2ea043"/>
    <!-- rows 5-7 : verticals -->
    <rect x="44" y="290" width="28" height="24" rx="2" fill="#2ea043"/><rect x="194" y="290" width="28" height="24" rx="2" fill="#2ea043"/>
    <rect x="44" y="316" width="28" height="24" rx="2" fill="#238636"/><rect x="194" y="316" width="28" height="24" rx="2" fill="#238636"/>
    <rect x="44" y="342" width="28" height="24" rx="2" fill="#238636"/><rect x="194" y="342" width="28" height="24" rx="2" fill="#238636"/>
  </g>

  <!-- ── neofetch info ──────────────────────────────── -->
  <text x="260" y="124" class="fade" style="animation-delay:.9s"><tspan fill="#3fb950" font-weight="700">milad</tspan><tspan fill="#c9d1d9">@</tspan><tspan fill="#3fb950" font-weight="700">Milads-MacBook-Pro</tspan></text>
  <text x="260" y="148" class="fade" style="animation-delay:.95s" fill="#444c56">──────────────────────────</text>

  <g>
    <text x="260" y="172" class="fade" style="animation-delay:1.05s"><tspan fill="#3fb950" font-weight="700">Role:</tspan></text>
    <text x="364" y="172" class="fade" style="animation-delay:1.05s" fill="#c9d1d9">Senior Software Engineer — full-stack, backend-heavy</text>

    <text x="260" y="198" class="fade" style="animation-delay:1.15s"><tspan fill="#3fb950" font-weight="700">Uptime:</tspan></text>
    <text x="364" y="198" class="fade" style="animation-delay:1.15s" fill="#c9d1d9">9+ years in production</text>

    <text x="260" y="224" class="fade" style="animation-delay:1.25s"><tspan fill="#3fb950" font-weight="700">Backend:</tspan></text>
    <text x="364" y="224" class="fade" style="animation-delay:1.25s" fill="#c9d1d9">Java 21 · Spring Boot · Go · NestJS · Kafka · gRPC</text>

    <text x="260" y="250" class="fade" style="animation-delay:1.35s"><tspan fill="#3fb950" font-weight="700">Frontend:</tspan></text>
    <text x="364" y="250" class="fade" style="animation-delay:1.35s" fill="#c9d1d9">React · Next.js · React Native · TypeScript</text>

    <text x="260" y="276" class="fade" style="animation-delay:1.45s"><tspan fill="#3fb950" font-weight="700">Data:</tspan></text>
    <text x="364" y="276" class="fade" style="animation-delay:1.45s" fill="#c9d1d9">PostgreSQL · MongoDB · Redis · ClickHouse</text>

    <text x="260" y="302" class="fade" style="animation-delay:1.55s"><tspan fill="#3fb950" font-weight="700">Cloud:</tspan></text>
    <text x="364" y="302" class="fade" style="animation-delay:1.55s" fill="#c9d1d9">AWS · Kubernetes · Docker · Terraform · Helm</text>

    <text x="260" y="328" class="fade" style="animation-delay:1.65s"><tspan fill="#3fb950" font-weight="700">OSS:</tspan></text>
    <text x="364" y="328" class="fade" style="animation-delay:1.65s" fill="#c9d1d9">gkit — resilience toolkits (Java · Go · NestJS)</text>

    <text x="260" y="354" class="fade" style="animation-delay:1.75s"><tspan fill="#3fb950" font-weight="700">Domains:</tspan></text>
    <text x="364" y="354" class="fade" style="animation-delay:1.75s" fill="#c9d1d9">fintech · logistics · mobility · e-commerce</text>

    <text x="260" y="380" class="fade" style="animation-delay:1.85s"><tspan fill="#3fb950" font-weight="700">Location:</tspan></text>
    <text x="364" y="380" class="fade" style="animation-delay:1.85s" fill="#c9d1d9">Tehran, IR → Amsterdam, NL · visa sponsorship</text>
  </g>

  <!-- ── neofetch colour strip ──────────────────────── -->
  <g class="fade" style="animation-delay:2.05s">
    <rect x="364" y="394" width="16" height="12" fill="#21262d"/>
    <rect x="382" y="394" width="16" height="12" fill="#f85149"/>
    <rect x="400" y="394" width="16" height="12" fill="#3fb950"/>
    <rect x="418" y="394" width="16" height="12" fill="#d29922"/>
    <rect x="436" y="394" width="16" height="12" fill="#58a6ff"/>
    <rect x="454" y="394" width="16" height="12" fill="#bc8cff"/>
    <rect x="472" y="394" width="16" height="12" fill="#39c5cf"/>
    <rect x="490" y="394" width="16" height="12" fill="#c9d1d9"/>
  </g>

  <!-- ── idle prompt ────────────────────────────────── -->
  <text x="38" y="436" class="fade" style="animation-delay:2.4s"><tspan fill="#3fb950">milad@Milads-MacBook-Pro</tspan><tspan fill="#58a6ff"> ~</tspan><tspan fill="#8b949e"> %</tspan></text>
  <rect x="300" y="422" width="9" height="18" fill="#3fb950" class="cursor"/>
</svg>
